<svg xmlns="http://www.w3.org/2000/svg" viewBox="0 0 64 64"><title>Book pen</title><g id="Book_pen"  fill="white" stroke="transparent"  data-name="Book pen"><path d="M49,0H5A5,5,0,0,0,0,5V59a5,5,0,0,0,5,5H49a1,1,0,0,0,1-1V1A1,1,0,0,0,49,0ZM48,54H8V2H48ZM2,5A3,3,0,0,1,5,2H6V54a5.93,5.93,0,0,0-3.88.92C1.94,55.05,2,58.77,2,5ZM5,62a3,3,0,0,1,0-6H48v2H5a1,1,0,0,0,0,2H48v2Z"/><path d="M13,27H43a1,1,0,0,0,1-1V12a1,1,0,0,0-1-1H13a1,1,0,0,0-1,1V26A1,1,0,0,0,13,27Zm1-14H42V25H14Z"/><path d="M40,41H16a1,1,0,0,0,0,2H40A1,1,0,0,0,40,41Z"/><path d="M38,46H18a1,1,0,0,0,0,2H38A1,1,0,0,0,38,46Z"/><path d="M63.73,14.54,60,10.6V9a1,1,0,0,0-1-1V5a3,3,0,0,0-6,0V8a1,1,0,0,0-1,1V53c0,.23-.13-.23,2,6.32A1,1,0,0,0,55,60v1a1,1,0,0,0,2,0V60a1,1,0,0,0,1-.68c2.18-6.56,2-6.09,2-6.32V13.51l2,2.12V24a1,1,0,0,0,2,0C64,14.6,64.12,15,63.73,14.54ZM58,16H54V10h4ZM55,5a1,1,0,0,1,2,0V8H55Zm3,47.84L56.28,58h-.56L54,52.84V18h4Z"/></g></svg>