<svg width="300" height="287" viewBox="0 0 430 287" fill="none" xmlns="http://www.w3.org/2000/svg">
<path d="M58.5812 31.5527C58.5812 31.5527 5.01905 49.7463 12.5883 79.3088C20.1575 108.871 156.632 108.871 194.539 103.567C232.446 98.2623 336.302 86.5437 362.84 68.8973C389.378 51.251 372.689 41.4019 372.689 41.4019" stroke="#114B5F" stroke-width="9" stroke-miterlimit="10" stroke-linecap="round"/>
<path d="M78.5332 139.209C78.5332 139.209 83.093 147.554 101.287 150.579C119.48 153.618 389.647 154.302 411.351 49.7619C419.696 9.575 363.595 5 363.595 5" stroke="#114B5F" stroke-width="9" stroke-miterlimit="10" stroke-linecap="round"/>
<path d="M22.4568 135.409C22.4568 135.409 20.9369 150.578 40.6503 161.187C60.3638 171.796 158.293 193.698 202.583 193.789C271.117 193.926 373.469 162.707 406.071 125.56" stroke="#114B5F" stroke-width="9" stroke-miterlimit="10" stroke-linecap="round"/>
<path d="M47.4648 200.615C47.4648 200.615 85.691 236.835 165.73 231.697C248.384 226.393 333.272 215.024 390.132 169.532" stroke="#114B5F" stroke-width="9" stroke-miterlimit="10" stroke-linecap="round"/>
<path d="M102.807 245.346C102.807 245.346 176.341 276.429 253.675 265.06C331.008 253.691 368.155 169.532 368.155 169.532" stroke="#114B5F" stroke-width="9" stroke-miterlimit="10" stroke-linecap="round"/>
<path d="M52.006 95.0245L39.877 68.9121" stroke="#114B5F" stroke-width="9" stroke-miterlimit="10" stroke-linecap="round"/>
<path d="M278.787 135.882L293.865 113.433" stroke="#114B5F" stroke-width="9" stroke-miterlimit="10" stroke-linecap="round"/>
<path d="M377.85 50.5552L395.435 45.2051" stroke="#114B5F" stroke-width="9" stroke-miterlimit="10" stroke-linecap="round"/>
<path d="M425 99.0247L386.637 95.0273" stroke="#114B5F" stroke-width="9" stroke-miterlimit="10" stroke-linecap="round"/>
<path d="M386.637 142.037C386.637 142.037 403.918 155.124 412.187 156.644" stroke="#114B5F" stroke-width="9" stroke-miterlimit="10" stroke-linecap="round"/>
<path d="M315.645 174.335L331.011 148.405" stroke="#114B5F" stroke-width="9" stroke-miterlimit="10" stroke-linecap="round"/>
<path d="M173.305 149.82C173.305 149.82 166.481 167.011 160.416 174.337" stroke="#114B5F" stroke-width="9" stroke-miterlimit="10" stroke-linecap="round"/>
<path d="M40.6374 161.187L8.79492 180.14" stroke="#114B5F" stroke-width="9" stroke-miterlimit="10" stroke-linecap="round"/>
<path d="M5 78.2148L24.7134 116.456" stroke="#114B5F" stroke-width="9" stroke-miterlimit="10" stroke-linecap="round"/>
<path d="M108.246 227.986L77.7871 196.827" stroke="#114B5F" stroke-width="9" stroke-miterlimit="10" stroke-linecap="round"/>
<path d="M253.674 265.058C253.674 265.058 274.345 236.483 278.798 232.197" stroke="#114B5F" stroke-width="9" stroke-miterlimit="10" stroke-linecap="round"/>
<path d="M166.86 262.979L160.416 282.494" stroke="#114B5F" stroke-width="9" stroke-miterlimit="10" stroke-linecap="round"/>
</svg>
