<svg width="179" height="179" viewBox="0 0 179 179" fill="none" xmlns="http://www.w3.org/2000/svg">
<path d="M167.065 149.633L94.3465 23.7734C93.2627 21.903 91.3923 20.9766 89.5044 20.9766C87.6165 20.9766 85.7287 21.903 84.6623 23.7734L11.9436 149.633C9.79349 153.374 12.4855 158.023 16.7857 158.023H162.223C166.523 158.023 169.215 153.374 167.065 149.633ZM83.9107 72.7188C83.9107 71.9496 84.54 71.3203 85.3091 71.3203H93.6997C94.4689 71.3203 95.0982 71.9496 95.0982 72.7188V104.883C95.0982 105.652 94.4689 106.281 93.6997 106.281H85.3091C84.54 106.281 83.9107 105.652 83.9107 104.883V72.7188ZM89.5044 134.25C87.3088 134.205 85.2181 133.301 83.6812 131.733C82.1442 130.164 81.2833 128.056 81.2833 125.859C81.2833 123.663 82.1442 121.555 83.6812 119.986C85.2181 118.417 87.3088 117.514 89.5044 117.469C91.7001 117.514 93.7907 118.417 95.3277 119.986C96.8647 121.555 97.7255 123.663 97.7255 125.859C97.7255 128.056 96.8647 130.164 95.3277 131.733C93.7907 133.301 91.7001 134.205 89.5044 134.25Z" fill="#F45B69"/>
</svg>
