<svg width="179" height="179" viewBox="0 0 179 179" fill="none" xmlns="http://www.w3.org/2000/svg">
<path d="M104.012 17.4808C99.9637 14.0301 94.8181 12.1348 89.4984 12.1348C84.1788 12.1348 79.0331 14.0301 74.9845 17.4808L65.505 25.5656C64.3088 26.5857 62.8209 27.2017 61.2537 27.3258L48.8356 28.3103C43.5343 28.7349 38.5575 31.0339 34.7976 34.7952C31.0376 38.5565 28.7404 43.5341 28.3177 48.8356L27.3258 61.2612C27.2002 62.8257 26.5843 64.3108 25.5656 65.505L17.4808 74.9845C14.0301 79.0331 12.1348 84.1788 12.1348 89.4984C12.1348 94.8181 14.0301 99.9637 17.4808 104.012L25.5656 113.492C26.5857 114.688 27.2017 116.176 27.3258 117.743L28.3177 130.161C28.7421 135.461 31.0401 140.437 34.7998 144.197C38.5596 147.957 43.5354 150.255 48.8356 150.679L61.2612 151.671C62.8274 151.798 64.3116 152.417 65.505 153.431L74.9845 161.516C79.0331 164.967 84.1788 166.862 89.4984 166.862C94.8181 166.862 99.9637 164.967 104.012 161.516L113.492 153.431C114.685 152.417 116.177 151.798 117.743 151.671L130.161 150.679C135.461 150.255 140.437 147.957 144.197 144.197C147.957 140.437 150.255 135.461 150.679 130.161L151.671 117.736C151.797 116.171 152.413 114.686 153.431 113.492L161.516 104.012C164.967 99.9637 166.862 94.8181 166.862 89.4984C166.862 84.1788 164.967 79.0331 161.516 74.9845L153.431 65.505C152.411 64.3088 151.795 62.8209 151.671 61.2537L150.679 48.8356C150.256 43.5341 147.959 38.5565 144.199 34.7952C140.439 31.0339 135.463 28.7349 130.161 28.3103L117.736 27.3258C116.171 27.2002 114.686 26.5843 113.492 25.5656L104.012 17.4808ZM84.6505 28.8398C86.0004 27.6883 87.7166 27.0557 89.491 27.0557C91.2653 27.0557 92.9815 27.6883 94.3314 28.8398L103.818 36.9172C107.402 39.9705 111.857 41.8157 116.55 42.1902L128.968 43.1822C130.736 43.3219 132.396 44.0872 133.651 45.3406C134.906 46.594 135.673 48.2536 135.815 50.0215L136.807 62.4471C137.181 67.1399 139.026 71.595 142.08 75.1784L150.157 84.658C151.309 86.0079 151.941 87.7241 151.941 89.4984C151.941 91.2728 151.309 92.989 150.157 94.3389L142.08 103.818C139.026 107.402 137.181 111.857 136.807 116.55L135.815 128.968C135.675 130.737 134.908 132.398 133.653 133.653C132.398 134.908 130.737 135.675 128.968 135.815L116.55 136.807C111.857 137.181 107.402 139.026 103.818 142.08L94.3389 150.157C92.989 151.309 91.2728 151.941 89.4984 151.941C87.7241 151.941 86.0079 151.309 84.658 150.157L75.1784 142.08C71.595 139.026 67.1399 137.181 62.4471 136.807L50.0215 135.815C48.2536 135.673 46.594 134.906 45.3406 133.651C44.0872 132.396 43.3219 130.736 43.1822 128.968L42.1902 116.55C41.8157 111.857 39.9705 107.402 36.9172 103.818L28.8398 94.3389C27.6883 92.989 27.0557 91.2728 27.0557 89.4984C27.0557 87.7241 27.6883 86.0079 28.8398 84.658L36.9172 75.1784C39.9705 71.595 41.8157 67.1399 42.1902 62.4471L43.1822 50.0215C43.3236 48.2547 44.0896 46.5961 45.3429 45.3429C46.5961 44.0896 48.2547 43.3236 50.0215 43.1822L62.4471 42.1902C67.1399 41.8157 71.595 39.9705 75.1784 36.9172L84.658 28.8398H84.6505ZM117.139 79.8548C118.498 78.4481 119.249 76.5642 119.232 74.6086C119.215 72.6531 118.431 70.7824 117.048 69.3996C115.665 68.0167 113.795 67.2324 111.839 67.2154C109.884 67.1984 108 67.9501 106.593 69.3087L82.0401 93.869L72.3965 84.2254C71.7085 83.513 70.8855 82.9448 69.9755 82.554C69.0656 82.1631 68.0869 81.9573 67.0966 81.9487C66.1063 81.9401 65.1242 82.1288 64.2076 82.5038C63.291 82.8789 62.4582 83.4327 61.7579 84.1329C61.0577 84.8332 60.5039 85.666 60.1288 86.5826C59.7538 87.4992 59.5651 88.4813 59.5737 89.4716C59.5823 90.4619 59.7881 91.4406 60.179 92.3505C60.5698 93.2605 61.138 94.0835 61.8504 94.7715L76.7671 109.688C78.1657 111.086 80.0624 111.872 82.0401 111.872C84.0178 111.872 85.9145 111.086 87.3131 109.688L117.146 79.8548H117.139Z" fill="#E4FDE1"/>
</svg>
